<svg xmlns="http://www.w3.org/2000/svg" width="109" height="30" fill="none"><path fill="#F8AE00" d="M14.62 27.193a1.98 1.98 0 0 1-1.395-.57l-2.675-2.654H6.765a1.961 1.961 0 0 1-1.969-1.952v-3.754l-2.682-2.66a1.95 1.95 0 0 1 0-2.765l2.675-2.653V6.43c0-1.08.886-1.952 1.969-1.952h3.785l2.676-2.654a1.99 1.99 0 0 1 2.787 0l2.676 2.654h3.785c1.09 0 1.969.878 1.969 1.952v3.755l2.675 2.653a1.95 1.95 0 0 1 0 2.765l-2.675 2.653v3.754a1.961 1.961 0 0 1-1.969 1.953h-3.772l-2.675 2.653c-.39.387-.892.577-1.4.577Z"/><path fill="#008669" d="m13.675 3.816-9.54 9.46a1.333 1.333 0 0 0 0 1.888l2.346 2.326a10.4 10.4 0 0 1 3.626-2.778c3.634-1.69 5.833-.157 8.086-2.791 1.407-1.645 1.083-3.42.7-4.449a3.08 3.08 0 0 0-.687-1.048l-2.629-2.608a1.36 1.36 0 0 0-1.902 0Z"/><path fill="#008669" d="m15.57 24.618 9.54-9.46a1.333 1.333 0 0 0 0-1.888l-2.345-2.325a10.398 10.398 0 0 1-3.627 2.777c-3.634 1.69-5.833.158-8.086 2.792-1.407 1.644-1.083 3.42-.7 4.448.152.393.39.747.687 1.048l2.629 2.608a1.36 1.36 0 0 0 1.902 0Z"/><path fill="#008669" d="m27.878 12.923-2.96-2.935V5.834a1.836 1.836 0 0 0-1.843-1.828h-4.188l-2.96-2.935a1.857 1.857 0 0 0-2.61 0l-2.959 2.935H6.17a1.836 1.836 0 0 0-1.843 1.828v4.154l-2.96 2.935a1.82 1.82 0 0 0 0 2.588l2.96 2.935V22.6c0 1.009.826 1.828 1.843 1.828h4.188l2.96 2.935c.72.714 1.89.714 2.61 0l2.959-2.935h4.188a1.836 1.836 0 0 0 1.843-1.828v-4.154l2.96-2.935a1.82 1.82 0 0 0 0-2.588Zm-1.23 2.201-2.873 2.85v4.036c0 .708-.581 1.284-1.295 1.284h-4.069l-2.874 2.85a1.295 1.295 0 0 1-1.83 0l-2.873-2.85h-4.07A1.292 1.292 0 0 1 5.47 22.01v-4.036l-2.874-2.85a1.27 1.27 0 0 1 0-1.814l2.874-2.85V6.424c0-.708.581-1.284 1.295-1.284h4.069l2.874-2.85a1.295 1.295 0 0 1 1.83 0l2.873 2.85h4.07c.713 0 1.294.576 1.294 1.284v4.036l2.874 2.85a1.27 1.27 0 0 1 0 1.814ZM94.678 24.48h3.37v-7.403l6.044 7.403h4.082l-6.857-8.445 6.309-6.434h-3.944l-5.628 5.746V3.96h-3.37v20.52h-.006ZM77.496 9.601l5.72 14.277-.145.393c-.634 1.67-1.658 2.024-2.497 2.024-.31 0-.68-.026-.978-.118v3.02c.298.119.932.263 1.718.263 2.761 0 4.122-1.815 5.292-4.81l5.866-15.055h-3.574l-3.825 10.463-3.964-10.463h-3.613V9.6Zm-6.084 10.627c0 2.844 1.288 4.514 4.049 4.514.786 0 1.387-.144 1.685-.262v-3.033a2.83 2.83 0 0 1-.826.13c-.918 0-1.52-.602-1.52-1.788V3.96h-3.382v16.268h-.007Zm-14.772-3.19c0-2.949 2.042-4.547 4.136-4.547 2.1 0 4.135 1.598 4.135 4.547 0 2.948-2.041 4.546-4.135 4.546-2.101-.006-4.136-1.605-4.136-4.546Zm-3.508 0c0 4.927 3.462 7.711 7.036 7.711 2.438 0 4.003-1.258 4.703-2.3v2.038h3.383V9.6H64.87v2.025c-.693-1.029-2.259-2.287-4.703-2.287-3.574 0-7.035 2.759-7.035 7.699ZM33.91 24.48h3.488v-8.956h9.797v8.956h3.488V3.96h-3.488v8.4h-9.797v-8.4h-3.488v20.52Z"/></svg>